<?xml version="1.0" standalone="no"?>
<svg xmlns="http://www.w3.org/2000/svg" width="512" height="1024" viewBox="0 0 512 1024">
<rect x="320" y="128" width="64" height="64" fill="#000" />
<rect x="256" y="128" width="64" height="64" fill="#000" />
<rect x="192" y="128" width="64" height="64" fill="#000" />
<rect x="128" y="128" width="64" height="64" fill="#000" />
<rect x="384" y="192" width="64" height="64" fill="#000" />
<rect x="64" y="192" width="64" height="64" fill="#000" />
<rect x="448" y="256" width="64" height="64" fill="#000" />
<rect x="256" y="256" width="64" height="64" fill="#000" />
<rect x="192" y="256" width="64" height="64" fill="#000" />
<rect x="128" y="256" width="64" height="64" fill="#000" />
<rect x="0" y="256" width="64" height="64" fill="#000" />
<rect x="448" y="320" width="64" height="64" fill="#000" />
<rect x="320" y="320" width="64" height="64" fill="#000" />
<rect x="128" y="320" width="64" height="64" fill="#000" />
<rect x="0" y="320" width="64" height="64" fill="#000" />
<rect x="448" y="384" width="64" height="64" fill="#000" />
<rect x="256" y="384" width="64" height="64" fill="#000" />
<rect x="192" y="384" width="64" height="64" fill="#000" />
<rect x="128" y="384" width="64" height="64" fill="#000" />
<rect x="0" y="384" width="64" height="64" fill="#000" />
<rect x="448" y="448" width="64" height="64" fill="#000" />
<rect x="320" y="448" width="64" height="64" fill="#000" />
<rect x="128" y="448" width="64" height="64" fill="#000" />
<rect x="0" y="448" width="64" height="64" fill="#000" />
<rect x="448" y="512" width="64" height="64" fill="#000" />
<rect x="320" y="512" width="64" height="64" fill="#000" />
<rect x="128" y="512" width="64" height="64" fill="#000" />
<rect x="0" y="512" width="64" height="64" fill="#000" />
<rect x="384" y="576" width="64" height="64" fill="#000" />
<rect x="64" y="576" width="64" height="64" fill="#000" />
<rect x="320" y="640" width="64" height="64" fill="#000" />
<rect x="256" y="640" width="64" height="64" fill="#000" />
<rect x="192" y="640" width="64" height="64" fill="#000" />
<rect x="128" y="640" width="64" height="64" fill="#000" />
</svg>