<?xml version="1.0" standalone="no"?>
<svg xmlns="http://www.w3.org/2000/svg" width="512" height="1024" viewBox="0 0 512 1024">
<rect x="256" y="256" width="64" height="64" fill="#000" />
<rect x="192" y="256" width="64" height="64" fill="#000" />
<rect x="256" y="320" width="64" height="64" fill="#000" />
<rect x="192" y="320" width="64" height="64" fill="#000" />
<rect x="256" y="448" width="64" height="64" fill="#000" />
<rect x="192" y="448" width="64" height="64" fill="#000" />
<rect x="256" y="512" width="64" height="64" fill="#000" />
<rect x="192" y="512" width="64" height="64" fill="#000" />
<rect x="256" y="576" width="64" height="64" fill="#000" />
<rect x="192" y="576" width="64" height="64" fill="#000" />
<rect x="256" y="640" width="64" height="64" fill="#000" />
<rect x="192" y="640" width="64" height="64" fill="#000" />
<rect x="256" y="704" width="64" height="64" fill="#000" />
<rect x="192" y="704" width="64" height="64" fill="#000" />
<rect x="256" y="768" width="64" height="64" fill="#000" />
<rect x="192" y="768" width="64" height="64" fill="#000" />
<rect x="256" y="832" width="64" height="64" fill="#000" />
<rect x="192" y="832" width="64" height="64" fill="#000" />
</svg>